<svg width="24" height="24" viewBox="0 0 24 24" xmlns="http://www.w3.org/2000/svg"><path fill-rule="evenodd" clip-rule="evenodd" d="M12 1.895C6.417 1.895 1.895 6.423 1.895 12c0 4.466 2.897 8.25 6.91 9.59.503.093.689-.217.689-.49 0-.242-.006-.875-.012-1.719-2.81.608-3.405-1.352-3.405-1.352-.459-1.166-1.123-1.476-1.123-1.476-.918-.627.068-.615.068-.615 1.011.074 1.55 1.042 1.55 1.042.9 1.545 2.364 1.098 2.941.837.093-.651.354-1.097.639-1.352-2.245-.254-4.603-1.123-4.603-4.994 0-1.104.391-2.003 1.042-2.71-.105-.254-.452-1.284.1-2.674 0 0 .85-.273 2.779 1.036.806-.223 1.668-.335 2.53-.341.856.006 1.724.118 2.53.341 1.929-1.309 2.779-1.036 2.779-1.036.552 1.39.205 2.42.1 2.674.645.707 1.036 1.606 1.036 2.71 0 3.883-2.363 4.733-4.615 4.987.36.31.689.93.689 1.873 0 1.353-.012 2.438-.012 2.773 0 .273.18.583.695.484 4.014-1.34 6.904-5.125 6.904-9.584C22.105 6.423 17.583 1.895 12 1.895Z" fill="#191717"/></svg>
